<?xml version="1.0" encoding="UTF-8"?>
<!DOCTYPE svg PUBLIC "-//W3C//DTD SVG 1.1//EN" "http://www.w3.org/Graphics/SVG/1.1/DTD/svg11.dtd">
<!-- Creator: CorelDRAW -->
<svg xmlns="http://www.w3.org/2000/svg" xml:space="preserve" width="4in" height="4in" version="1.1" style="shape-rendering:geometricPrecision; text-rendering:geometricPrecision; image-rendering:optimizeQuality; fill-rule:evenodd; clip-rule:evenodd"
viewBox="0 0 4000 4000"
 xmlns:xlink="http://www.w3.org/1999/xlink"
 xmlns:xodm="http://www.corel.com/coreldraw/odm/2003">
 <defs>
  <style type="text/css">
   <![CDATA[
    .fil0 {fill:none}
    .fil1 {fill:#1DA1F2;fill-rule:nonzero}
   ]]>
  </style>
 </defs>
 <g id="App_x0020_Store">
  <metadata id="CorelCorpID_0Corel-Layer"/>
  <g id="_2912255711360">
   <rect class="fil0" x="-0" y="-0" width="4000" height="4000"/>
   <path class="fil1" d="M3153.09 2054.06c0,80.63 -19.37,155.39 -58.11,223.86 -38.74,68.46 -90.54,122.06 -155.85,159.45 1.8,12.16 2.7,31.08 2.7,56.76 0,122.06 -40.99,225.66 -122.06,311.24 -81.53,86.03 -179.72,128.82 -294.58,128.82 -51.35,0 -100.44,-9.46 -146.84,-28.37 -36.04,73.87 -87.83,133.33 -155.85,178.82 -67.56,45.94 -141.88,68.46 -222.51,68.46 -82.43,0 -157.2,-22.07 -223.86,-67.11 -67.11,-44.59 -118.46,-104.5 -154.5,-180.17 -46.39,18.92 -95.04,28.37 -146.84,28.37 -114.86,0 -213.5,-42.79 -295.93,-128.82 -82.43,-85.58 -123.42,-189.63 -123.42,-311.24 0,-13.52 1.8,-32.43 4.96,-56.76 -65.31,-37.83 -117.11,-90.98 -155.85,-159.45 -38.28,-68.46 -57.65,-143.24 -57.65,-223.86 0,-85.58 21.62,-164.41 64.41,-235.57 42.79,-71.17 100.44,-123.87 172.52,-158.1 -18.92,-51.35 -28.38,-103.15 -28.38,-154.5 0,-121.62 40.99,-225.67 123.42,-311.25 82.43,-85.58 181.07,-128.82 295.93,-128.82 51.35,0 100.44,9.46 146.84,28.37 36.04,-73.87 87.83,-133.33 155.85,-178.82 67.56,-45.49 141.88,-68.46 222.51,-68.46 80.63,0 154.95,22.97 222.51,68.02 67.57,45.49 119.81,104.95 155.85,178.82 46.39,-18.92 95.04,-28.38 146.84,-28.38 114.86,0 213.05,42.79 294.58,128.82 81.53,86.03 122.06,189.63 122.06,311.24 0,56.76 -8.56,108.1 -25.67,154.5 72.07,34.23 129.72,86.93 172.52,158.1 42.79,71.62 64.41,150.44 64.41,236.02l0 0zm-1202.19 347.28l476.1 -713.03c12.16,-18.92 15.76,-39.64 11.71,-61.71 -4.5,-22.07 -15.76,-39.64 -34.68,-51.35 -18.92,-12.16 -39.64,-16.21 -61.71,-13.06 -22.52,3.6 -40.54,14.41 -54.05,33.33l-419.35 630.6 -193.23 -192.78c-17.12,-17.12 -36.94,-25.22 -59.01,-24.32 -22.52,0.9 -41.89,9.01 -59,24.32 -15.31,15.31 -22.97,34.68 -22.97,58.1 0,22.97 7.66,42.34 22.97,58.11l265.3 265.3 13.06 10.36c15.31,10.36 31.08,15.31 46.39,15.31 30.18,-0.45 53.15,-13.06 68.46,-39.19l0 0z"/>
  </g>
 </g>
</svg>
